<svg width="466" height="129" viewBox="0 0 466 129" fill="none" xmlns="http://www.w3.org/2000/svg">
<g filter="url(#filter0_d_21380_19)">
<path fill-rule="evenodd" clip-rule="evenodd" d="M16.4218 14.5397C16 15.3839 16 16.4852 16 18.6876V85.9676C16 88.1701 16 89.2714 16.4218 90.1156C16.809 90.8904 17.4372 91.5186 18.2121 91.9058C19.0563 92.3276 20.1575 92.3276 22.36 92.3276H28.393C31.4649 96.887 34.7227 100.328 36.5 100.328C38.2773 100.328 41.5351 96.887 44.607 92.3276H435.64C437.842 92.3276 438.944 92.3276 439.788 91.9058C440.563 91.5186 441.191 90.8904 441.578 90.1156C442 89.2714 442 88.1701 442 85.9676V18.6876C442 16.4852 442 15.3839 441.578 14.5397C441.191 13.7649 440.563 13.1366 439.788 12.7495C438.944 12.3276 437.842 12.3276 435.64 12.3276H22.36C20.1575 12.3276 19.0563 12.3276 18.2121 12.7495C17.4372 13.1366 16.809 13.7649 16.4218 14.5397Z" fill="white"/>
</g>
<defs>
<filter id="filter0_d_21380_19" x="0" y="0.327637" width="466" height="128" filterUnits="userSpaceOnUse" color-interpolation-filters="sRGB">
<feFlood flood-opacity="0" result="BackgroundImageFix"/>
<feColorMatrix in="SourceAlpha" type="matrix" values="0 0 0 0 0 0 0 0 0 0 0 0 0 0 0 0 0 0 127 0" result="hardAlpha"/>
<feOffset dx="4" dy="8"/>
<feGaussianBlur stdDeviation="10"/>
<feColorMatrix type="matrix" values="0 0 0 0 0 0 0 0 0 0.0514323 0 0 0 0 0.329167 0 0 0 0.2 0"/>
<feBlend mode="normal" in2="BackgroundImageFix" result="effect1_dropShadow_21380_19"/>
<feBlend mode="normal" in="SourceGraphic" in2="effect1_dropShadow_21380_19" result="shape"/>
</filter>
</defs>
</svg>
